<svg width="60" height="60" viewBox="0 0 60 60" fill="none" xmlns="http://www.w3.org/2000/svg">
<circle cx="30" cy="30" r="30" fill="black"/>
<path d="M25.1992 24.4236C25.1992 17.1335 31.1091 11.2236 38.3992 11.2236V11.2236V48.9883H25.1992V24.4236Z" fill="white"/>
<path d="M33.459 23.7881C33.459 20.7473 35.9241 18.2822 38.9649 18.2822H43.3413V23.7881H33.459V23.7881Z" fill="black"/>
<g filter="url(#filter0_d_2442_2869)">
<path d="M38.373 23.4355L52.4876 24.1753L52.0736 32.0737L37.9591 31.334L38.373 23.4355Z" fill="black"/>
<path d="M38.8462 23.961L51.9621 24.6484L51.6005 31.5483L38.4846 30.8609L38.8462 23.961Z" stroke="black"/>
</g>
<path d="M21.1055 23.7881H35.8584V30.0038H21.1055L21.1055 23.7881Z" fill="white"/>
<rect x="33.459" y="30" width="11.1529" height="23.8588" fill="black"/>
<defs>
<filter id="filter0_d_2442_2869" x="33.959" y="23.4355" width="22.5293" height="16.6387" filterUnits="userSpaceOnUse" color-interpolation-filters="sRGB">
<feFlood flood-opacity="0" result="BackgroundImageFix"/>
<feColorMatrix in="SourceAlpha" type="matrix" values="0 0 0 0 0 0 0 0 0 0 0 0 0 0 0 0 0 0 127 0" result="hardAlpha"/>
<feOffset dy="4"/>
<feGaussianBlur stdDeviation="2"/>
<feComposite in2="hardAlpha" operator="out"/>
<feColorMatrix type="matrix" values="0 0 0 0 0 0 0 0 0 0 0 0 0 0 0 0 0 0 0.25 0"/>
<feBlend mode="normal" in2="BackgroundImageFix" result="effect1_dropShadow_2442_2869"/>
<feBlend mode="normal" in="SourceGraphic" in2="effect1_dropShadow_2442_2869" result="shape"/>
</filter>
</defs>
</svg>
