<svg width="133" height="131" viewBox="0 0 133 131" fill="none" xmlns="http://www.w3.org/2000/svg">
<rect x="0.5" y="0.5" width="132" height="130" stroke="black"/>
<path d="M49.3275 91.5C36.2241 91.5 25.5533 80.7869 25.5 67.7136C25.5005 66.4134 26.5571 65.358 27.8624 65.3573H36.4486C37.7538 65.3573 38.8108 66.4137 38.8108 67.7146C38.8108 73.5065 43.5296 78.2143 49.3283 78.2143C55.1262 78.2143 59.845 73.5065 59.845 67.7146V64.2862C59.845 51.1719 70.5338 40.5 83.6725 40.5C96.812 40.5 107.5 51.1719 107.5 64.2862C107.5 65.5872 106.444 66.6435 105.138 66.6435H96.5514C95.2462 66.6435 94.1892 65.5871 94.1892 64.2862C94.1892 58.4952 89.4713 53.7857 83.6717 53.7857C77.8729 53.7857 73.1542 58.4952 73.1542 64.2862V67.7146C73.1542 80.8289 62.4662 91.5 49.3275 91.5Z" fill="white" stroke="black"/>
</svg>
