<svg width="49" height="49" viewBox="0 0 49 49" fill="none" xmlns="http://www.w3.org/2000/svg">
<path fill-rule="evenodd" clip-rule="evenodd" d="M24.5002 1.14844C11.288 1.14844 0.574219 11.8602 0.574219 25.0744C0.574219 35.6455 7.42974 44.614 16.9363 47.7777C18.132 47.9992 18.571 47.2587 18.571 46.6267C18.571 46.0562 18.5488 44.1715 18.5385 42.1722C11.8823 43.6195 10.4777 39.3493 10.4777 39.3493C9.38937 36.5838 7.82119 35.8484 7.82119 35.8484C5.65039 34.3634 7.98482 34.3939 7.98482 34.3939C10.3874 34.5627 11.6525 36.8595 11.6525 36.8595C13.7864 40.5173 17.2497 39.4598 18.615 38.8485C18.8297 37.3021 19.4498 36.2466 20.134 35.6491C14.8197 35.0441 9.23326 32.9926 9.23326 23.8248C9.23326 21.2126 10.1679 19.0783 11.6984 17.4027C11.45 16.8001 10.6311 14.3666 11.9302 11.071C11.9302 11.071 13.9394 10.4279 18.5116 13.5235C20.4201 12.9934 22.4669 12.7275 24.5002 12.7184C26.5335 12.7275 28.5819 12.9934 30.494 13.5235C35.0606 10.4279 37.067 11.071 37.067 11.071C38.3693 14.3666 37.55 16.8001 37.3016 17.4027C38.8357 19.0783 39.764 21.2126 39.764 23.8248C39.764 33.0143 34.1668 35.0378 28.839 35.6301C29.6972 36.3726 30.4619 37.8286 30.4619 40.0608C30.4619 43.2622 30.4341 45.8387 30.4341 46.6267C30.4341 47.2634 30.8648 48.0095 32.0776 47.7745C41.579 44.6073 48.4258 35.642 48.4258 25.0744C48.4258 11.8602 37.7136 1.14844 24.5002 1.14844ZM9.53528 35.2315C9.48258 35.3504 9.29557 35.386 9.1252 35.3044C8.95167 35.2263 8.8542 35.0643 8.91046 34.945C8.96197 34.8226 9.14937 34.7885 9.32251 34.8706C9.49645 34.9486 9.5955 35.1122 9.53528 35.2315ZM10.7122 36.2816C10.5981 36.3874 10.375 36.3383 10.2236 36.1711C10.0671 36.0043 10.0378 35.7812 10.1535 35.6738C10.2712 35.5681 10.4875 35.6176 10.6444 35.7844C10.8009 35.9532 10.8314 36.1747 10.7122 36.2816ZM11.5196 37.6252C11.373 37.727 11.1333 37.6316 10.9851 37.4188C10.8385 37.206 10.8385 36.9509 10.9883 36.8487C11.1368 36.7464 11.373 36.8384 11.5231 37.0495C11.6693 37.2659 11.6693 37.521 11.5196 37.6252ZM12.885 39.1813C12.7539 39.3259 12.4746 39.2871 12.2701 39.0898C12.0609 38.8968 12.0027 38.6231 12.1342 38.4784C12.267 38.3334 12.5479 38.3742 12.7539 38.57C12.9615 38.7625 13.0249 39.0383 12.885 39.1813ZM14.6498 39.7066C14.5919 39.894 14.3229 39.9792 14.0519 39.8996C13.7813 39.8176 13.6042 39.5981 13.6589 39.4087C13.7151 39.2201 13.9853 39.1313 14.2583 39.2165C14.5285 39.2981 14.706 39.516 14.6498 39.7066ZM16.6581 39.9294C16.6649 40.1268 16.4351 40.2904 16.1506 40.294C15.8645 40.3003 15.6331 40.1406 15.63 39.9465C15.63 39.7472 15.8546 39.5851 16.1407 39.5804C16.4252 39.5748 16.6581 39.7333 16.6581 39.9294ZM18.6311 39.8538C18.6652 40.0464 18.4675 40.2441 18.185 40.2968C17.9072 40.3475 17.6501 40.2286 17.6148 40.0377C17.5804 39.8403 17.7816 39.6426 18.059 39.5915C18.3419 39.5424 18.5951 39.6581 18.6311 39.8538Z" fill="#161614"/>
</svg>
