<svg width="55" height="55" viewBox="0 0 55 55" fill="none" xmlns="http://www.w3.org/2000/svg">
<path d="M49.4863 29.9338V44.825C49.4881 45.2235 49.4112 45.6183 49.26 45.9869C49.1087 46.3555 48.8862 46.6906 48.6051 46.9729C48.3241 47.2553 47.99 47.4793 47.6221 47.6322C47.2541 47.7851 46.8597 47.8638 46.4613 47.8638H34.5263C33.7203 47.8638 32.9474 47.5436 32.3775 46.9738C31.8077 46.4039 31.4875 45.631 31.4875 44.825V35.8051C31.4875 34.7439 31.0659 33.7261 30.3156 32.9757C29.5652 32.2254 28.5474 31.8038 27.4862 31.8038C26.4251 31.8038 25.4073 32.2254 24.6569 32.9757C23.9066 33.7261 23.485 34.7439 23.485 35.8051V44.825C23.4868 45.2235 23.4099 45.6183 23.2587 45.9869C23.1075 46.3555 22.885 46.6906 22.6039 46.9729C22.3228 47.2553 21.9887 47.4793 21.6208 47.6322C21.2529 47.7851 20.8584 47.8638 20.46 47.8638H8.525C7.72146 47.8602 6.95207 47.5384 6.38516 46.9689C5.81826 46.3994 5.49999 45.6286 5.5 44.825V29.9338C5.49942 28.5947 6.02827 27.3096 6.97125 26.3588L25.4925 7.70004C25.7565 7.43731 26.0696 7.2292 26.4141 7.08764C26.7586 6.94607 27.1276 6.87383 27.5 6.87505C27.8685 6.87289 28.2336 6.94481 28.5738 7.08653C28.9139 7.22826 29.2221 7.43689 29.48 7.70004L48.015 26.3588C48.485 26.8274 48.8571 27.3848 49.1097 27.9985C49.3623 28.6123 49.4903 29.2701 49.4863 29.9338Z" fill="black"/>
</svg>
