<svg width="50" height="50" viewBox="0 0 50 50" fill="none" xmlns="http://www.w3.org/2000/svg">
<path d="M25.0023 0C18.2127 0 17.3606 0.029688 14.6939 0.151042C12.0324 0.272917 10.2157 0.694271 8.62613 1.3125C6.98184 1.95104 5.58704 2.80521 4.19744 4.19531C2.8068 5.5849 1.95262 6.97969 1.31199 8.62344C0.692194 10.2135 0.270315 12.0307 0.150522 14.6911C0.0312501 17.3578 0 18.2104 0 25C0 31.7896 0.0302091 32.6391 0.151044 35.3057C0.273441 37.9672 0.694799 39.7839 1.31251 41.3734C1.95158 43.0177 2.80576 44.4125 4.19588 45.8021C5.58495 47.1927 6.97976 48.049 8.62301 48.6875C10.2136 49.3057 12.0309 49.7271 14.6918 49.849C17.3585 49.9703 18.2101 50 24.9992 50C31.7894 50 32.6389 49.9703 35.3056 49.849C37.9671 49.7271 39.7858 49.3057 41.3765 48.6875C43.0202 48.049 44.413 47.1927 45.802 45.8021C47.1927 44.4125 48.0469 43.0177 48.6875 41.374C49.3021 39.7839 49.724 37.9667 49.849 35.3063C49.9687 32.6396 50 31.7896 50 25C50 18.2104 49.9687 17.3583 49.849 14.6917C49.724 12.0302 49.3021 10.2135 48.6875 8.62396C48.0469 6.97969 47.1927 5.5849 45.802 4.19531C44.4114 2.80469 43.0208 1.95052 41.3749 1.3125C39.7811 0.694271 37.9634 0.272917 35.3019 0.151042C32.6352 0.029688 31.7863 0 24.9945 0H25.0023ZM22.7596 4.50521C23.4252 4.50417 24.168 4.50521 25.0023 4.50521C31.6774 4.50521 32.4686 4.52917 35.1045 4.64896C37.5421 4.76042 38.865 5.16771 39.7462 5.5099C40.9129 5.96302 41.7447 6.50469 42.6192 7.37969C43.4942 8.25469 44.0359 9.08802 44.49 10.2547C44.8322 11.1349 45.2401 12.4578 45.351 14.8953C45.4708 17.5307 45.4968 18.3224 45.4968 24.9943C45.4968 31.6661 45.4708 32.4578 45.351 35.0932C45.2395 37.5307 44.8322 38.8536 44.49 39.7339C44.0369 40.9005 43.4942 41.7313 42.6192 42.6057C41.7442 43.4807 40.9134 44.0224 39.7462 44.4755C38.866 44.8193 37.5421 45.2255 35.1045 45.337C32.4691 45.4568 31.6774 45.4828 25.0023 45.4828C18.3268 45.4828 17.5356 45.4568 14.9002 45.337C12.4626 45.2245 11.1397 44.8172 10.2579 44.475C9.09124 44.0219 8.2579 43.4802 7.38289 42.6052C6.50788 41.7302 5.96621 40.899 5.51204 39.7318C5.16985 38.8516 4.76203 37.5286 4.65109 35.0911C4.5313 32.4557 4.50734 31.6641 4.50734 24.988C4.50734 18.312 4.5313 17.5245 4.65109 14.8891C4.76255 12.4516 5.16985 11.1286 5.51204 10.2474C5.96517 9.08073 6.50788 8.24739 7.38289 7.3724C8.2579 6.4974 9.09124 5.95573 10.2579 5.50156C11.1392 5.15781 12.4626 4.75156 14.9002 4.63958C17.2064 4.53542 18.1002 4.50417 22.7596 4.49896V4.50521ZM38.3473 8.65625C36.691 8.65625 35.3472 9.99844 35.3472 11.6552C35.3472 13.3115 36.691 14.6552 38.3473 14.6552C40.0035 14.6552 41.3473 13.3115 41.3473 11.6552C41.3473 9.99896 40.0035 8.65521 38.3473 8.65521V8.65625ZM25.0023 12.1615C17.9122 12.1615 12.1637 17.9099 12.1637 25C12.1637 32.0901 17.9122 37.8359 25.0023 37.8359C32.0925 37.8359 37.8389 32.0901 37.8389 25C37.8389 17.9099 32.092 12.1615 25.0018 12.1615H25.0023ZM25.0023 16.6667C29.6045 16.6667 33.3358 20.3974 33.3358 25C33.3358 29.6021 29.6045 33.3333 25.0023 33.3333C20.3997 33.3333 16.6689 29.6021 16.6689 25C16.6689 20.3974 20.3997 16.6667 25.0023 16.6667Z" fill="#262626"/>
</svg>
